<svg id="Layer_1" data-name="Layer 1" xmlns="http://www.w3.org/2000/svg" viewBox="0 0 1900 1080"><defs><style>.cls-1{fill:#2a2a2a;stroke:#000;}.cls-1,.cls-2{stroke-miterlimit:10;}.cls-2,.cls-3{fill:#333;}.cls-2{stroke:#333;}</style></defs><rect class="cls-1" x="-0.5" y="-0.5" width="1900" height="1080"/><path id="pencil-alt-solid" class="cls-2" d="M174.573,263.2089a4.57567,4.57567,0,0,0,5.88383-2.69335L183.302,252.915a4.59272,4.59272,0,0,0-2.68481-5.89746l-5.82992-2.18234-.0016-.0006a1.147,1.147,0,0,0-1.47587.67321L168.0562,259.5446l-.00059.0016a1.147,1.147,0,0,0,.67321,1.47587l5.82945,2.18131Zm-4.795-20.25144a1.15842,1.15842,0,0,1,.67639,1.48575l-5.2522,14.03992-.0006.00159a1.147,1.147,0,0,1-1.47687.671L130.515,246.71989l-6.65538-9.71069a2.29409,2.29409,0,0,1,1.31653-3.51469l11.3959-2.96462,33.20736,12.43068Zm-27.1994-4.40007a1.33121,1.33121,0,0,0,.78724,1.71011l19.47422,7.28989.02946.011a1.33689,1.33689,0,0,0,.90785-2.51494l-19.47423-7.28988-.0105-.00393a1.3312,1.3312,0,0,0-1.71011.78723Zm-4.56124-1.7194-1.43614-3.15462-6.05165,1.56964-1.47152,3.92874,3.53687,5.15982,3.15463-1.43614-1.89869-4.17064Z"/><path id="pencil-alt-solid-2" data-name="pencil-alt-solid" class="cls-2" d="M664.30506,574.65845a4.57567,4.57567,0,0,0,3.87928-5.17926l-1.13619-8.03572a4.59273,4.59273,0,0,0-5.17829-3.89533l-6.16369.87151-.00168.00023a1.147,1.147,0,0,0-.9742,1.29706l2.09909,14.84.00024.00168a1.147,1.147,0,0,0,1.29706.9742l6.16278-.87219Zm-13.89615-15.49224a1.15841,1.15841,0,0,1,1.30457.98135l2.10181,14.84207.00024.00169a1.147,1.147,0,0,1-.97612,1.29561l-35.11307,4.96069-10.489-5.34534a2.2941,2.2941,0,0,1-.52464-3.71632l8.5904-8.05359,35.10853-4.96411Zm-25.9916,9.14357a1.33122,1.33122,0,0,0,1.50922,1.12538l20.58915-2.91117.03114-.0044a1.33689,1.33689,0,0,0-.40544-2.64287l-20.58915,2.91117-.0111.00157a1.33119,1.33119,0,0,0-1.12538,1.50922Zm-4.82809.67134-2.76993-2.08366-4.56407,4.27264.58655,4.15408,5.57382,2.84,2.08366-2.76993-3.662-2.75475Z"/><path id="pencil-alt-solid-3" data-name="pencil-alt-solid" class="cls-2" d="M1343.87187,352.27318a4.57567,4.57567,0,0,0-5.49453,3.41814l-1.85776,7.90016a4.59272,4.59272,0,0,0,3.41141,5.50912l6.05971,1.425.00166.00039a1.147,1.147,0,0,0,1.37852-.855l3.43009-14.59.00039-.00166a1.147,1.147,0,0,0-.855-1.37853l-6.05911-1.424Zm7.32584,19.47933a1.15841,1.15841,0,0,1-.85944-1.38791l3.42829-14.59287.00039-.00165a1.147,1.147,0,0,1,1.37979-.853l34.51923,8.12151,7.83373,8.78773a2.2941,2.2941,0,0,1-.85993,3.65333l-10.92762,4.38663-34.51624-8.11668Zm27.53786.91331a1.3312,1.3312,0,0,0-.99786-1.5964l-20.2418-4.76-.03062-.0072a1.33689,1.33689,0,1,0-.5814,2.6098l20.24181,4.76.0109.00257a1.33122,1.33122,0,0,0,1.59641-.99786Zm4.74254,1.12675,1.82481,2.9469,5.80357-2.32482.96113-4.0837-4.163-4.66934-2.9469,1.82481,2.41253,3.896Z"/><path id="pencil-alt-solid-4" data-name="pencil-alt-solid" class="cls-2" d="M118.13222,941.94038a4.57567,4.57567,0,0,0,3.30693,5.56217l7.86119,2.0163a4.59272,4.59272,0,0,0,5.57663-3.29991l1.54658-6.02982.00042-.00165a1.147,1.147,0,0,0-.82714-1.39544l-14.518-3.72286-.00165-.00043a1.14706,1.14706,0,0,0-1.39545.82714l-1.54559,6.02924Zm19.62275-6.93254a1.15842,1.15842,0,0,1-1.40492.83135l-14.521-3.72112-.00165-.00043a1.147,1.147,0,0,1-.82507-1.39667l8.81421-34.34888,8.94353-7.65538a2.29408,2.29408,0,0,1,3.63529.93323l4.16594,11.01365-8.80932,34.346Zm1.467-27.51392a1.33121,1.33121,0,0,0-1.61616.96555l-5.16616,20.142-.00781.03047a1.33689,1.33689,0,1,0,2.59758.63378l5.16616-20.142.00279-.01085a1.3312,1.3312,0,0,0-.96555-1.61615Zm1.22191-4.71891,2.983-1.76516-2.20761-5.84917-4.06354-1.04307-4.75213,4.06822,1.76517,2.983,3.94375-2.33367Z"/><path id="pencil-alt-solid-5" data-name="pencil-alt-solid" class="cls-2" d="M1021.571,901.82356a4.57567,4.57567,0,0,0,3.70371,5.30623l7.98729,1.43772a4.59273,4.59273,0,0,0,5.32116-3.69776l1.10278-6.12654.0003-.00167a1.147,1.147,0,0,0-.92668-1.33142l-14.75083-2.65434-.00168-.0003a1.147,1.147,0,0,0-1.33142.92669l-1.10184,6.12589Zm19.065-8.34492a1.15841,1.15841,0,0,1-1.34056.93158l-14.75364-2.65239-.00167-.00031a1.147,1.147,0,0,1-.92471-1.33278l6.28612-34.90016,8.36151-8.28714a2.29409,2.29409,0,0,1,3.69367.66568l4.95793,10.68056-6.28146,34.89691Zm-.54311-27.54765a1.33121,1.33121,0,0,0-1.54144,1.08083l-3.68372,20.465-.00557.031a1.33689,1.33689,0,1,0,2.63688.44268l3.68372-20.46505.002-.011a1.3312,1.3312,0,0,0-1.08082-1.54144Zm.87457-4.79545,2.84636-1.978-2.62824-5.67262-4.12879-.744-4.44283,4.40391,1.978,2.84636,3.76309-2.615Z"/><path id="eraser-solid" class="cls-2" d="M237.62659,641.50368l13.49025,3.0647h0a1.152,1.152,0,0,1,.86817,1.37859l-.85047,3.74361h0a1.152,1.152,0,0,1-1.37858.86817l-33.321-7.56984a4.608,4.608,0,0,1-2.879-2.03843l-6.94384-11.02628a4.607,4.607,0,0,1,1.4433-6.35312l29.404-18.51812.00086-.00054a4.607,4.607,0,0,1,6.35323,1.44406l11.57407,18.37872a4.607,4.607,0,0,1-1.4433,6.35312Zm-24.99776-13.55262,5.78637,9.19229,10.73935,2.43976,7.73179-4.86913-9.93556-15.78222Z"/><path id="eraser-solid-2" data-name="eraser-solid" class="cls-2" d="M1129.47735,323.84488l.08143-13.83376h0a1.152,1.152,0,0,1,1.15876-1.1452l3.83893.0226h0a1.152,1.152,0,0,1,1.1452,1.15876l-.20113,34.1694a4.608,4.608,0,0,1-1.36916,3.251l-9.26807,9.15961a4.607,4.607,0,0,1-6.51489-.03835l-24.427-24.71521-.00071-.00073a4.607,4.607,0,0,1,.03907-6.51516l15.44813-15.26733a4.607,4.607,0,0,1,6.51489.03835Zm-7.839,27.33333,7.72707-7.63365.06482-11.01281-6.42285-6.49892L1109.741,339.14Z"/><path id="eraser-solid-3" data-name="eraser-solid" class="cls-2" d="M1456.29136,726.713l-4.565-13.05912h0a1.152,1.152,0,0,1,.70734-1.46761l3.624-1.2668h0a1.152,1.152,0,0,1,1.46761.70733l11.27546,32.256a4.608,4.608,0,0,1-.199,3.52193l-5.65746,11.73835a4.607,4.607,0,0,1-6.15008,2.14983l-31.30363-15.08642-.00091-.00044a4.607,4.607,0,0,1-2.14925-6.15058l9.42991-19.56561a4.607,4.607,0,0,1,6.15008-2.14983Zm1.78663,28.379,4.71778-9.7838-3.63408-10.39613-8.23111-3.9671-8.09945,16.7986Z"/><path id="eraser-solid-4" data-name="eraser-solid" class="cls-2" d="M1690.88869,166.17666l-4.24537,13.16649h0a1.152,1.152,0,0,1-1.44994.74289l-3.65377-1.17811h0a1.152,1.152,0,0,1-.74289-1.44994l10.48608-32.52124a4.608,4.608,0,0,1,2.285-2.68746l11.597-5.94182a4.607,4.607,0,0,1,6.20064,1.99932l15.846,30.92605.00046.0009a4.607,4.607,0,0,1-2.00009,6.20069l-19.33,9.9039a4.607,4.607,0,0,1-6.20064-1.99932Zm15.70957-23.70169-9.66785,4.951-3.37967,10.48161,4.1665,8.132,16.59881-8.50137Z"/><path id="eraser-solid-5" data-name="eraser-solid" class="cls-2" d="M1841.61213,930.02131l2.30476-13.64065h0a1.152,1.152,0,0,1,1.32783-.944l3.78535.63958h0a1.152,1.152,0,0,1,.944,1.32783l-5.69277,33.69245a4.608,4.608,0,0,1-1.87409,2.98854l-10.62029,7.55016a4.607,4.607,0,0,1-6.424-1.08541l-20.135-28.32134-.00059-.00082a4.607,4.607,0,0,1,1.08616-6.42411l17.702-12.58469a4.607,4.607,0,0,1,6.424,1.08541Zm-12.13208,25.7172,8.854-6.29185,1.83479-10.85908-5.29429-7.44712-15.20132,10.80342Z"/><path id="eraser-solid-6" data-name="eraser-solid" class="cls-2" d="M417.80832,86.27644l9.83147-9.7325h0a1.152,1.152,0,0,1,1.62915.00825l2.70082,2.72828h0a1.152,1.152,0,0,1-.00824,1.62915l-24.28376,24.0393a4.608,4.608,0,0,1-3.26584,1.33336l-13.0304-.06592a4.607,4.607,0,0,1-4.58344-4.63l.17509-34.74891v-.001a4.607,4.607,0,0,1,4.63076-4.58313l21.71921.10988a4.607,4.607,0,0,1,4.58343,4.63Zm-24.8592,13.80513,10.86171.05707,7.82667-7.74787.04622-9.13711-18.649-.09718Z"/><path id="eraser-solid-7" data-name="eraser-solid" class="cls-2" d="M841.10268,94.17509l7.20393-11.81029h0a1.152,1.152,0,0,1,1.58337-.38358l3.27741,1.99912h0a1.152,1.152,0,0,1,.38359,1.58337l-17.7937,29.17144a4.608,4.608,0,0,1-2.84961,2.07926l-12.66423,3.068a4.607,4.607,0,0,1-5.562-3.39263l-8.18237-33.77227-.00024-.001a4.607,4.607,0,0,1,3.39339-5.56182l21.10888-5.11382a4.607,4.607,0,0,1,5.562,3.39262Zm-20.81217,19.37562,10.557-2.55535,5.73492-9.402L834.43108,92.713l-18.12561,4.38819Z"/><path id="eraser-solid-8" data-name="eraser-solid" class="cls-2" d="M585.5674,934.19654l-11.06691-8.30077h0a1.152,1.152,0,0,1-.23035-1.6128l2.3035-3.07113h0a1.152,1.152,0,0,1,1.61281-.23034l27.33531,20.50291a4.608,4.608,0,0,1,1.7971,3.03546l1.84237,12.89966a4.607,4.607,0,0,1-3.90917,5.21187l-34.40017,4.91385-.001.00014a4.607,4.607,0,0,1-5.21167-3.90992l-3.07088-21.5013a4.607,4.607,0,0,1,3.90918-5.21187Zm17.29565,22.57038-1.53364-10.75305-8.81018-6.6081-9.04544,1.2919,2.634,18.46229Z"/><path id="eraser-solid-9" data-name="eraser-solid" class="cls-2" d="M1729.12306,512.7816l13.71871-1.78228h0a1.152,1.152,0,0,1,1.29081.994l.4946,3.807h0a1.152,1.152,0,0,1-.994,1.29081l-33.88523,4.40224a4.608,4.608,0,0,1-3.40577-.91888l-10.32428-7.95014a4.607,4.607,0,0,1-.83935-6.46071l21.20054-27.53279.00062-.0008a4.607,4.607,0,0,1,6.46108-.83868l17.20863,13.25139a4.607,4.607,0,0,1,.83935,6.46071Zm-28.14-4.08669,8.6047,6.62867,10.92122-1.41884,5.57476-7.23955-14.7743-11.38042Z"/><path id="eraser-solid-10" data-name="eraser-solid" class="cls-2" d="M1449.1526,107.62745l-13.03015,4.647h0a1.152,1.152,0,0,1-1.472-.69809l-1.28957-3.61593h0a1.152,1.152,0,0,1,.69809-1.472l32.18448-11.47814a4.60794,4.60794,0,0,1,3.52311.17681l11.77371,5.5835a4.607,4.607,0,0,1,2.18847,6.13644l-14.8892,31.39791-.00044.00091a4.607,4.607,0,0,1-6.13694,2.1879l-19.62454-9.30665a4.607,4.607,0,0,1-2.18847-6.13643Zm28.36723-1.96511-9.81328-4.65614-10.37307,3.69941-3.91524,8.2559,16.84922,7.99362Z"/><path id="eraser-solid-11" data-name="eraser-solid" class="cls-2" d="M85.711,49.91537l11.593-7.54868h0a1.152,1.152,0,0,1,1.594.33678l2.0948,3.2171h0a1.152,1.152,0,0,1-.33678,1.594L72.02133,66.15982a4.608,4.608,0,0,1-3.4677.647L55.80452,64.11317a4.607,4.607,0,0,1-3.555-5.45961l7.18263-33.99893.00021-.001a4.607,4.607,0,0,1,5.46024-3.55454L86.143,25.58892a4.607,4.607,0,0,1,3.555,5.4596ZM58.57767,58.42084l10.62681,2.24742,9.229-6.00937L80.32227,45.719l-18.24583-3.8579Z"/><path id="eraser-solid-12" data-name="eraser-solid" class="cls-2" d="M1006.62972,523.13992l-13.83289-.17457h0a1.152,1.152,0,0,1-1.13737-1.16645l.04844-3.83869h0a1.152,1.152,0,0,1,1.16645-1.13738l34.16727.4312a4.608,4.608,0,0,1,3.24171,1.391l9.097,9.32954a4.607,4.607,0,0,1-.08221,6.51449l-24.87912,24.26-.00073.0007a4.607,4.607,0,0,1-6.51475-.08293l-15.163-15.55058a4.607,4.607,0,0,1,.08221-6.51448Zm27.27994,8.02288-7.58145-7.77829-11.01213-.139-6.542,6.379,13.01751,13.35434Z"/><path id="pencil-alt-solid-6" data-name="pencil-alt-solid" class="cls-2" d="M652.17635,319.47725a4.57567,4.57567,0,0,0-5.38284-3.59146L638.8316,317.458a4.59272,4.59272,0,0,0-3.60754,5.38274l1.2059,6.10708.00033.00167a1.147,1.147,0,0,0,1.34819.90211l14.70368-2.90419.00167-.00033a1.147,1.147,0,0,0,.90211-1.34819l-1.20653-6.10613Zm-14.71244,14.71926a1.15841,1.15841,0,0,1,.90885-1.35607l14.70558-2.907.00167-.00033a1.147,1.147,0,0,1,1.34685.90411l6.86565,34.79079-4.76615,10.76453a2.29408,2.29408,0,0,1-3.68223.72627l-8.50949-8.139-6.86883-34.78606Zm10.54556,25.45505a1.33122,1.33122,0,0,0,1.04152-1.56827l-4.02818-20.4-.00609-.03085a1.33689,1.33689,0,1,0-2.61686.54878l4.02817,20.4.00217.011a1.33122,1.33122,0,0,0,1.56827,1.04152Zm.93329,4.78436-1.92971,2.8793,4.51487,4.3246,4.116-.81192,2.53225-5.72021-2.8793-1.92972-2.55122,3.80664Z"/><path id="pencil-alt-solid-7" data-name="pencil-alt-solid" class="cls-2" d="M1508.6532,1002.52388a4.57567,4.57567,0,0,0,4.34917,4.79148l8.10534.409a4.59271,4.59271,0,0,0,4.807-4.34517l.31375-6.21709.00008-.0017a1.147,1.147,0,0,0-1.08866-1.20259l-14.96874-.7546-.0017-.00008a1.147,1.147,0,0,0-1.20259,1.08867l-.31291,6.21632Zm17.84733-10.70444a1.1584,1.1584,0,0,1-1.211,1.09468l-14.97126-.75231-.0017-.00008a1.147,1.147,0,0,1-1.08688-1.20421L1511.021,955.541l7.23831-9.28431a2.29407,2.29407,0,0,1,3.74835.19l6.27748,9.96236-1.78711,35.41267Zm-4.04617-27.25429a1.33121,1.33121,0,0,0-1.39128,1.26829l-1.048,20.76751-.00158.03141a1.33689,1.33689,0,1,0,2.67178.10334l1.048-20.76751.00057-.01119a1.33121,1.33121,0,0,0-1.26829-1.39128Zm.25688-4.86777,2.57134-2.32429-3.32911-5.29181-4.1899-.21225-3.846,4.93374,2.32428,2.57135,3.39951-3.07288Z"/><path id="palette-solid" class="cls-2" d="M372.57741,760.18475a21.517,21.517,0,0,1,20.5403-22.45125,5.5,5.5,0,0,1,5.6968,5.2303l.26413,6.68878a5.683,5.683,0,0,0,8.45938,4.785c3.04892-1.70963,7.16073-.17367,7.83483,3.26241,2.07574,10.59735-9.065,25.22031-24.88036,22.73439a21.50007,21.50007,0,0,1-17.91508-20.24958ZM399.977,772.42787l0-.001a2.685,2.685,0,0,0-2.79173-2.57385h0a2.688,2.688,0,1,0,2.792,2.57985Zm-10.84865-2.26071,0-.001a2.685,2.685,0,0,0-2.79077-2.57489h0a2.688,2.688,0,1,0,2.792,2.57985Zm-5.79525-10.53655a2.685,2.685,0,0,0-2.79173-2.57385h0a2.688,2.688,0,1,0,2.792,2.57985Zm4.94666-10.95371a2.685,2.685,0,0,0-2.79173-2.57384h0a2.688,2.688,0,1,0,2.792,2.57984Z"/><path id="palette-solid-2" data-name="palette-solid" class="cls-2" d="M367.27471,464.93365a21.517,21.517,0,0,1,14.71207-26.63677,5.5,5.5,0,0,1,6.76315,3.75093l1.823,6.441a5.683,5.683,0,0,0,9.34464,2.67108c2.56383-2.376,6.921-1.8456,8.38093,1.33711,4.4995,9.81667-2.90737,26.64178-18.86518,27.9283a21.5,21.5,0,0,1-22.15863-15.49163Zm29.50464,5.48689-.00027-.001a2.685,2.685,0,0,0-3.31681-1.84858h0a2.688,2.688,0,1,0,3.31844,1.85436Zm-11.0764.34245-.00027-.001a2.685,2.685,0,0,0-3.31612-1.84982h0a2.688,2.688,0,1,0,3.31844,1.85436Zm-8.10136-8.88661a2.685,2.685,0,0,0-3.31681-1.84858h0a2.688,2.688,0,1,0,3.31844,1.85436Zm2.24422-11.80748a2.685,2.685,0,0,0-3.31681-1.84858h0a2.688,2.688,0,1,0,3.31844,1.85436Z"/><path id="palette-solid-3" data-name="palette-solid" class="cls-2" d="M1223.21074,112.12877a21.517,21.517,0,0,1-4.38621,30.11186,5.5,5.5,0,0,1-7.65093-1.12817l-3.975-5.386a5.683,5.683,0,0,0-9.68659.79181c-1.56253,3.12685-5.82726,4.16523-8.31475,1.7008-7.66906-7.6025-6.66364-25.9583,7.81817-32.78355a21.50008,21.50008,0,0,1,26.19534,6.69323Zm-29.5463,5.25791.00059.00081a2.685,2.685,0,0,0,3.75539.56174h0a2.688,2.688,0,1,0-3.75895-.56657Zm10.24583-4.2222.00059.0008a2.685,2.685,0,0,0,3.75517.56315h0a2.688,2.688,0,1,0-3.75894-.56658Zm10.71243,5.46328a2.685,2.685,0,0,0,3.75538.56175h0a2.688,2.688,0,1,0-3.75894-.56658Zm2.05885,11.84122a2.685,2.685,0,0,0,3.75538.56174h0a2.688,2.688,0,1,0-3.759-.56658Z"/><path id="palette-solid-4" data-name="palette-solid" class="cls-2" d="M1832.26665,72.90126a21.517,21.517,0,0,1-19.62558-23.25509,5.5,5.5,0,0,1,5.919-4.97745l6.66727.59761a5.683,5.683,0,0,0,5.83235-7.77436c-1.30366-3.24334.74795-7.12367,4.24217-7.35063,10.77623-.69673,23.84631,12.23073,19.34865,27.59555a21.50005,21.50005,0,0,1-22.38386,15.16437Zm15.66258-25.59908-.001-.00009a2.685,2.685,0,0,0-2.91126,2.43783h0a2.688,2.688,0,1,0,2.91724-2.43729Zm-3.63607,10.46819-.001-.00009A2.685,2.685,0,0,0,1841.38,60.207h0a2.688,2.688,0,1,0,2.91724-2.43729Zm-11.1939,4.3932a2.685,2.685,0,0,0-2.91126,2.43783h0a2.688,2.688,0,1,0,2.91724-2.4373ZM1822.872,55.85032a2.685,2.685,0,0,0-2.91126,2.43783h0a2.688,2.688,0,1,0,2.91724-2.43729Z"/><path id="palette-solid-5" data-name="palette-solid" class="cls-2" d="M1869.68526,683.47474a21.517,21.517,0,0,1-30.362-2.02691,5.5,5.5,0,0,1,.52867-7.71558l5.05992-4.38256a5.683,5.683,0,0,0-1.54407-9.59546c-3.23909-1.31417-4.60657-5.485-2.34342-8.157,6.98191-8.23805,25.36025-8.66575,33.293,5.2403a21.50006,21.50006,0,0,1-4.63206,26.63718Zm-7.54383-29.04686-.00076.00065a2.685,2.685,0,0,0-.26745,3.78773h0a2.688,2.688,0,1,0,.272-3.79166Zm5.0076,9.88574-.00075.00065a2.685,2.685,0,0,0-.26887,3.78763h0a2.688,2.688,0,1,0,.272-3.79166Zm-4.61209,11.10551a2.685,2.685,0,0,0-.26745,3.78773h0a2.688,2.688,0,1,0,.272-3.79166Zm-11.64481,2.97512a2.685,2.685,0,0,0-.26746,3.78773h0a2.688,2.688,0,1,0,.272-3.79166Z"/><path id="palette-solid-6" data-name="palette-solid" class="cls-2" d="M1893.63409,267.67223a21.517,21.517,0,0,1-3.11859,30.26941,5.5,5.5,0,0,1-7.69154-.80608l-4.19757-5.21441a5.683,5.683,0,0,0-9.64482,1.19764c-1.42993,3.18968-5.64732,4.40613-8.236,2.04827-7.98138-7.274-7.7472-25.65577,6.4354-33.08279a21.5,21.5,0,0,1,26.45316,5.588Zm-29.2996,6.49329.00063.00078a2.685,2.685,0,0,0,3.77565.40364h0a2.688,2.688,0,1,0-3.77941-.40831Zm10.0596-4.64848.00063.00078a2.685,2.685,0,0,0,3.7755.405h0a2.688,2.688,0,1,0-3.77942-.40831Zm10.93229,5.00888a2.685,2.685,0,0,0,3.77564.40364h0a2.688,2.688,0,1,0-3.77941-.40831Zm2.554,11.74437a2.685,2.685,0,0,0,3.77565.40364h0a2.688,2.688,0,1,0-3.77942-.40831Z"/><path id="palette-solid-7" data-name="palette-solid" class="cls-2" d="M877.141,1069.39663a21.517,21.517,0,0,1-30.37814-1.76962,5.5,5.5,0,0,1,.46329-7.71978l5.02261-4.42527a5.683,5.683,0,0,0-1.6253-9.582c-3.25011-1.28669-4.65287-5.44582-2.41244-8.13682,6.91187-8.29691,25.28592-8.88029,33.3362,4.958a21.50012,21.50012,0,0,1-4.40622,26.67547Zm-7.78964-28.98191-.00075.00066a2.685,2.685,0,0,0-.23536,3.78986h0a2.688,2.688,0,1,0,.23986-3.79383Zm5.09117,9.843-.00075.00066a2.685,2.685,0,0,0-.23677,3.78978h0a2.688,2.688,0,1,0,.23987-3.79384Zm-4.51784,11.14418a2.685,2.685,0,0,0-.23536,3.78987h0a2.688,2.688,0,1,0,.23987-3.79383Zm-11.61919,3.07367a2.685,2.685,0,0,0-.23536,3.78986h0a2.688,2.688,0,1,0,.23986-3.79383Z"/><path id="palette-solid-8" data-name="palette-solid" class="cls-2" d="M72.72193,1040.62188a21.517,21.517,0,0,1-6.00363-29.83151,5.5,5.5,0,0,1,7.58432-1.51252l5.55578,3.734a5.683,5.683,0,0,0,8.85507-4.00558c.41906-3.47033,4.08555-5.8834,7.25733-4.39988,9.78029,4.57806,15.011,22.20149,3.671,33.50237a21.50006,21.50006,0,0,1-26.91987,2.51309ZM98.7752,1025.727l-.00083-.00056a2.685,2.685,0,0,0-3.72537.73488h0a2.688,2.688,0,1,0,3.73035-.73153Zm-8.2272,7.42409-.00083-.00056a2.685,2.685,0,0,0-3.72565.73349h0a2.688,2.688,0,1,0,3.73035-.73153Zm-11.92619-1.53939a2.685,2.685,0,0,0-3.72538.73488h0a2.688,2.688,0,1,0,3.73036-.73153ZM72.698,1021.15415a2.685,2.685,0,0,0-3.72537.73487h0a2.688,2.688,0,1,0,3.73036-.73152Z"/><path id="palette-solid-9" data-name="palette-solid" class="cls-2" d="M124.43043,672.363a21.517,21.517,0,0,1-29.57686,7.15343,5.5,5.5,0,0,1-1.80486-7.52011l3.51626-5.6961a5.683,5.683,0,0,0-4.34522-8.69345c-3.48394-.28447-6.03708-3.85484-4.67739-7.08165,4.19618-9.95011,21.604-15.85887,33.33523-4.96459a21.50006,21.50006,0,0,1,3.55284,26.80247Zm-15.89179-25.45742-.00052.00085a2.685,2.685,0,0,0,.87847,3.69415h0a2.688,2.688,0,1,0-.87532-3.69926Zm7.73687,7.93378-.00052.00085a2.685,2.685,0,0,0,.8771,3.69447h0a2.688,2.688,0,1,0-.87533-3.69925Zm-1.07676,11.97682a2.685,2.685,0,0,0,.87847,3.69415h0a2.688,2.688,0,1,0-.87532-3.69926Zm-10.22055,6.324a2.685,2.685,0,0,0,.87848,3.69415h0a2.688,2.688,0,1,0-.87532-3.69926Z"/><path id="palette-solid-10" data-name="palette-solid" class="cls-2" d="M852.7442,728.30981a21.517,21.517,0,0,1-4.99448,30.017,5.5,5.5,0,0,1-7.62655-1.28272l-3.86526-5.46529a5.683,5.683,0,0,0-9.70062.59568c-1.62547,3.09461-5.91033,4.0465-8.34746,1.53224-7.51369-7.75609-6.13712-26.08779,8.4798-32.61867a21.5,21.5,0,0,1,26.05457,7.22181Zm-29.64662,4.65909.00057.00082a2.685,2.685,0,0,0,3.74325.6376h0a2.688,2.688,0,1,0-3.74671-.6425Zm10.32914-4.01406.00058.00082a2.685,2.685,0,0,0,3.743.639h0a2.688,2.688,0,1,0-3.74671-.64251Zm10.59972,5.67889a2.685,2.685,0,0,0,3.74325.6376h0a2.688,2.688,0,1,0-3.74671-.64251Zm1.81888,11.88044a2.685,2.685,0,0,0,3.74324.6376h0a2.688,2.688,0,1,0-3.74671-.64251Z"/><path id="palette-solid-11" data-name="palette-solid" class="cls-2" d="M1207.30726,581.13355a21.517,21.517,0,0,1,8.22031,29.29828,5.5,5.5,0,0,1-7.44979,2.07613l-5.81975-3.30758a5.683,5.683,0,0,0-8.53031,4.65734c-.15806,3.49195-3.63359,6.17277-6.90754,4.93089-10.0956-3.83294-16.63118-21.01527-6.16908-33.13348a21.50008,21.50008,0,0,1,26.65616-4.52158Zm-24.865,16.80369.00087.0005a2.685,2.685,0,0,0,3.6599-1.01174h0a2.688,2.688,0,1,0-3.66512,1.00877Zm7.64826-8.01923.00087.00049a2.685,2.685,0,0,0,3.66027-1.01037h0a2.688,2.688,0,1,0-3.66511,1.00877Zm12.008.64213a2.685,2.685,0,0,0,3.6599-1.01174h0a2.688,2.688,0,1,0-3.66511,1.00878Zm6.6902,9.98471a2.685,2.685,0,0,0,3.65989-1.01174h0a2.688,2.688,0,1,0-3.66511,1.00878Z"/><path id="palette-solid-12" data-name="palette-solid" class="cls-2" d="M1561.5308,655.89217a21.517,21.517,0,0,1,29.65808-6.80888,5.5,5.5,0,0,1,1.71725,7.5406l-3.58228,5.65482a5.683,5.683,0,0,0,4.2438,8.7434c3.48039.325,5.99183,3.92481,4.5947,7.13558-4.31165,9.90062-21.78705,15.60648-33.39073,4.57647a21.50005,21.50005,0,0,1-3.24082-26.842Zm15.59457,25.64057.00054-.00084a2.685,2.685,0,0,0-.83544-3.70412h0a2.688,2.688,0,1,0,.83223,3.70919Zm-7.644-8.02324.00054-.00085a2.685,2.685,0,0,0-.83407-3.70442h0a2.688,2.688,0,1,0,.83223,3.70918Zm1.216-11.96349a2.685,2.685,0,0,0-.83545-3.70412h0a2.688,2.688,0,1,0,.83224,3.70919Zm10.29342-6.20473a2.685,2.685,0,0,0-.83545-3.70411h0a2.688,2.688,0,1,0,.83223,3.70918Z"/><path id="palette-solid-13" data-name="palette-solid" class="cls-2" d="M1721.34847,982.94705a21.517,21.517,0,0,1,23.7842,18.9809,5.5,5.5,0,0,1-4.83458,6.03627l-6.65579.7142a5.683,5.683,0,0,0-4.2041,8.76256c1.91118,2.9268.65575,7.13275-2.7271,8.03683-10.43341,2.78506-25.77377-7.34507-24.35911-23.292a21.50009,21.50009,0,0,1,18.99648-19.23873Zm-10.36917,28.1622.001-.0001a2.685,2.685,0,0,0,2.3799-2.95881h0a2.688,2.688,0,1,0-2.38587,2.95945Zm1.52461-10.97631.001-.00011a2.685,2.685,0,0,0,2.381-2.95792h0a2.688,2.688,0,1,0-2.38587,2.95945Zm10.12213-6.492a2.685,2.685,0,0,0,2.37991-2.95881h0a2.688,2.688,0,1,0-2.38587,2.95945Zm11.26212,4.19738a2.685,2.685,0,0,0,2.3799-2.95881h0a2.688,2.688,0,1,0-2.38587,2.95945Z"/><path id="palette-solid-14" data-name="palette-solid" class="cls-2" d="M1396.83068,529.63932a21.517,21.517,0,0,1,14.23769-26.89333,5.5,5.5,0,0,1,6.82856,3.63048l1.93688,6.40766a5.683,5.683,0,0,0,9.39051,2.505c2.52132-2.42109,6.88719-1.968,8.40331,1.18837,4.67278,9.73539-2.43475,26.68913-18.36725,28.25826a21.50005,21.50005,0,0,1-22.4297-15.09648Zm29.59725,4.96312-.00029-.001a2.685,2.685,0,0,0-3.34905-1.78951h0a2.688,2.688,0,1,0,3.35078,1.79525Zm-11.0686.5387-.00029-.001a2.685,2.685,0,0,0-3.34838-1.79076h0a2.688,2.688,0,1,0,3.35079,1.79526Zm-8.25758-8.74163a2.685,2.685,0,0,0-3.349-1.78951h0a2.688,2.688,0,1,0,3.35078,1.79525Zm2.03461-11.84541a2.685,2.685,0,0,0-3.349-1.7895h0a2.688,2.688,0,1,0,3.35078,1.79525Z"/><path id="palette-solid-15" data-name="palette-solid" class="cls-2" d="M1598.38231,368.62335a21.517,21.517,0,0,1-29.40657,7.8241,5.5,5.5,0,0,1-1.97537-7.47714l3.38583-5.77458a5.683,5.683,0,0,0-4.54177-8.59239c-3.48951-.20518-6.12317-3.71658-4.8372-6.97347,3.96885-10.04294,21.23783-16.346,33.21373-5.72128a21.5,21.5,0,0,1,4.16135,26.71476Zm-16.46653-25.08949-.0005.00086a2.685,2.685,0,0,0,.96224,3.67322h0a2.688,2.688,0,1,0-.95921-3.6784Zm7.91527,7.7558-.00051.00087a2.685,2.685,0,0,0,.96088,3.67357h0a2.688,2.688,0,1,0-.95921-3.67839Zm-.80416,11.99821a2.685,2.685,0,0,0,.96225,3.67322h0a2.688,2.688,0,1,0-.95921-3.67839Zm-10.07411,6.55481a2.685,2.685,0,0,0,.96225,3.67322h0a2.688,2.688,0,1,0-.95921-3.6784Z"/><path id="palette-solid-16" data-name="palette-solid" class="cls-2" d="M938.31134,282.14163a21.517,21.517,0,0,1-27.368,13.30247,5.5,5.5,0,0,1-3.36861-6.96148l2.21922-6.31543a5.683,5.683,0,0,0-6.1009-7.56544c-3.46435.46582-6.72083-2.47722-6.08133-5.9199,1.97535-10.61653,17.72053-20.10523,31.507-11.96641a21.50008,21.50008,0,0,1,9.19262,25.42619Zm-20.96-21.47808-.00033.00094a2.685,2.685,0,0,0,1.64683,3.42146h0a2.688,2.688,0,1,0-1.64484-3.42712Zm9.25219,6.09925-.00033.00095a2.685,2.685,0,0,0,1.64556,3.42207h0a2.688,2.688,0,1,0-1.64485-3.42712Zm1.50481,11.93061a2.685,2.685,0,0,0,1.64684,3.42145h0a2.688,2.688,0,1,0-1.64485-3.42712Zm-8.63491,8.36011a2.685,2.685,0,0,0,1.64684,3.42145h0a2.688,2.688,0,1,0-1.64485-3.42712Z"/><path id="palette-solid-17" data-name="palette-solid" class="cls-2" d="M428.11036,240.33013A21.517,21.517,0,0,1,453.39542,223.4a5.5,5.5,0,0,1,4.2915,6.43372l-1.33214,6.56011a5.683,5.683,0,0,0,7.08079,6.65727c3.36774-.93654,6.99706,1.53209,6.83574,5.02995-.50071,10.78712-14.79582,22.3455-29.56818,16.17429a21.5,21.5,0,0,1-12.59277-23.92525Zm23.70751,18.40064.0002-.001a2.685,2.685,0,0,0-2.10051-3.16328h0a2.688,2.688,0,1,0,2.09931,3.16916ZM441.81663,253.958l.0002-.001a2.685,2.685,0,0,0-2.09932-3.16407h0a2.688,2.688,0,1,0,2.0993,3.16917Zm-3.12679-11.6115a2.685,2.685,0,0,0-2.1005-3.16328h0a2.688,2.688,0,1,0,2.09931,3.16916Zm7.4068-9.46533a2.685,2.685,0,0,0-2.1005-3.16328h0a2.688,2.688,0,1,0,2.09931,3.16916Z"/><path id="palette-solid-18" data-name="palette-solid" class="cls-2" d="M90.80676,448.77809a21.517,21.517,0,0,1,7.07953-29.59464,5.5,5.5,0,0,1,7.51829,1.81245l3.474,5.722a5.683,5.683,0,0,0,9.71853.08355c1.83772-2.97347,6.17861-3.62366,8.43411-.94527,6.95342,8.26211,4.29941,26.45284-10.7381,31.94649a21.50006,21.50006,0,0,1-25.48632-9.02457Zm29.8997-2.57633-.00052-.00086a2.685,2.685,0,0,0-3.68955-.89758h0a2.688,2.688,0,1,0,3.69267.90272Zm-10.58436,3.28256-.00052-.00085a2.685,2.685,0,0,0-3.68922-.899h0a2.688,2.688,0,1,0,3.69267.90271Zm-10.177-6.40559a2.685,2.685,0,0,0-3.68955-.89758h0a2.688,2.688,0,1,0,3.69266.90271Zm-.98436-11.97849a2.685,2.685,0,0,0-3.68955-.89758h0a2.688,2.688,0,1,0,3.69267.90271Z"/><path id="palette-solid-19" data-name="palette-solid" class="cls-2" d="M849.19252,622.40314a21.517,21.517,0,0,1-30.32926-2.46948,5.5,5.5,0,0,1,.64113-7.707l5.12329-4.3083a5.683,5.683,0,0,0-1.404-9.61695c-3.21958-1.36128-4.52609-5.55164-2.22422-8.19028,7.10131-8.13536,25.48393-8.295,33.213,5.72526a21.50006,21.50006,0,0,1-5.02,26.5668Zm-7.11942-29.15379-.00077.00064a2.685,2.685,0,0,0-.32267,3.78343h0a2.688,2.688,0,1,0,.32726-3.78729Zm4.8629,9.95772-.00077.00064a2.685,2.685,0,0,0-.32408,3.78331h0a2.688,2.688,0,1,0,.32727-3.78729Zm-4.77356,11.03707a2.685,2.685,0,0,0-.32267,3.78342h0a2.688,2.688,0,1,0,.32727-3.78729Zm-11.687,2.805a2.685,2.685,0,0,0-.32266,3.78343h0a2.688,2.688,0,1,0,.32726-3.7873Z"/><path id="sticky-note-solid" class="cls-2" d="M384.2591,991.8931l13.05088-.28533-.55393-25.33694a2.3,2.3,0,0,0-2.34972-2.24918l-38.39083.83931a2.3,2.3,0,0,0-2.24917,2.34972l.83931,38.39083a2.3,2.3,0,0,0,2.34972,2.24918l25.337-.55392-.28533-13.05089A2.31,2.31,0,0,1,384.2591,991.8931Zm1.68933,15.32373-.58586.01281-.26853-12.28306,12.28306-.26854.01259.57586a2.3,2.3,0,0,1-.63617,1.6463l-9.19816,9.60934A2.3,2.3,0,0,1,385.94843,1007.21683Z"/><path id="sticky-note-solid-2" data-name="sticky-note-solid" class="cls-2" d="M1334.81914,917.69163l-10.31126-8.0053-15.54147,20.01825a2.3,2.3,0,0,0,.40629,3.22722l30.33188,23.54861a2.3,2.3,0,0,0,3.22722-.40629l23.54861-30.33189a2.3,2.3,0,0,0-.40629-3.22721l-20.01825-15.54147-8.0053,10.31126A2.31,2.31,0,0,1,1334.81914,917.69163Zm8.34809-12.96072.46288.35936-7.53433,9.70463-9.70462-7.53433.35322-.455a2.3,2.3,0,0,1,1.53163-.877l13.19791-1.66154A2.3,2.3,0,0,1,1343.16723,904.73091Z"/><path id="sticky-note-solid-3" data-name="sticky-note-solid" class="cls-2" d="M1400.1858,216.90588l-11.75979-5.66695-11.0018,22.83042a2.3,2.3,0,0,0,1.07351,3.07044l34.59291,16.67005a2.3,2.3,0,0,0,3.07044-1.07351l16.67-34.59291a2.3,2.3,0,0,0-1.07351-3.07044l-22.83042-11.00179-5.667,11.75978A2.31,2.31,0,0,1,1400.1858,216.90588Zm5.447-14.42226.5279.2544-5.33355,11.06792-11.06793-5.33354.25-.5189a2.3,2.3,0,0,1,1.31386-1.17847l12.55675-4.39017A2.3,2.3,0,0,1,1405.63276,202.48362Z"/><path id="sticky-note-solid-4" data-name="sticky-note-solid" class="cls-2" d="M339.03907,331.22207l-12.97566,1.428,2.77239,25.1909a2.3,2.3,0,0,0,2.53781,2.03459l38.16953-4.20076a2.3,2.3,0,0,0,2.03459-2.5378L367.377,314.9675a2.3,2.3,0,0,0-2.53781-2.03459l-25.1909,2.77239,1.428,12.97566A2.31,2.31,0,0,1,339.03907,331.22207Zm-3.02585-15.11671.58248-.06411,1.344,12.21227-12.21226,1.344-.063-.57254a2.3,2.3,0,0,1,.48943-1.69572l8.32059-10.37852A2.3,2.3,0,0,1,336.01322,316.10536Z"/><path id="sticky-note-solid-5" data-name="sticky-note-solid" class="cls-2" d="M643.654,139.1639l-6.17172-11.5029-22.33171,11.98176a2.3,2.3,0,0,0-.9393,3.11412l18.1549,33.83724a2.3,2.3,0,0,0,3.11412.93931l33.83725-18.15491a2.3,2.3,0,0,0,.9393-3.11411l-11.98176-22.3317-11.50291,6.17172A2.31,2.31,0,0,1,643.654,139.1639Zm12.89211-8.45366.27705.51637L645.997,137.03523l-5.80862-10.82615.50756-.27233a2.3,2.3,0,0,1,1.75579-.17943l12.73537,3.84136A2.3,2.3,0,0,1,656.5461,130.71024Z"/><path id="sticky-note-solid-6" data-name="sticky-note-solid" class="cls-2" d="M173.8522,110.14979l-12.21877-4.59441-8.91956,23.72149a2.3,2.3,0,0,0,1.34334,2.96234l35.94307,13.515a2.3,2.3,0,0,0,2.96234-1.34335l13.515-35.94307a2.3,2.3,0,0,0-1.34334-2.96233L181.4128,96.58592l-4.5944,12.21877A2.31,2.31,0,0,1,173.8522,110.14979Zm4.13758-14.851.54851.20625-4.3241,11.49991-11.49991-4.32411.20272-.53914a2.3,2.3,0,0,1,1.20339-1.29107l12.11466-5.4937A2.3,2.3,0,0,1,177.98978,95.29882Z"/><path id="sticky-note-solid-7" data-name="sticky-note-solid" class="cls-2" d="M1073.4353,697.84828l3.914-12.45342-24.177-7.59861a2.3,2.3,0,0,0-2.8838,1.50457l-11.5135,36.63331a2.3,2.3,0,0,0,1.50458,2.88379l36.63331,11.5135a2.3,2.3,0,0,0,2.88379-1.50457l7.59861-24.177-12.45342-3.914A2.31,2.31,0,0,1,1073.4353,697.84828Zm15.05643,3.31279-.1757.559-11.72075-3.68372,3.68372-11.72075.5495.1727a2.3,2.3,0,0,1,1.35543,1.13041l6.153,11.79346A2.3,2.3,0,0,1,1088.49173,701.16107Z"/><path id="sticky-note-solid-8" data-name="sticky-note-solid" class="cls-2" d="M1601.28113,816.38117l-5.48474,11.84586,22.99752,10.64807a2.3,2.3,0,0,0,3.05351-1.12078l16.13407-34.84611a2.3,2.3,0,0,0-1.12077-3.0535l-34.84612-16.13407a2.3,2.3,0,0,0-3.0535,1.12077L1588.313,807.83894l11.84587,5.48474A2.31,2.31,0,0,1,1601.28113,816.38117Zm-14.50462-5.22368.24622-.53177,11.14894,5.16206-5.16207,11.14894-.52269-.242a2.3,2.3,0,0,1-1.19861-1.2955l-4.58347-12.48749A2.3,2.3,0,0,1,1586.77651,811.15749Z"/><path id="sticky-note-solid-9" data-name="sticky-note-solid" class="cls-2" d="M628.7276,716.16708,618.06,723.69091l14.60675,20.71016a2.3,2.3,0,0,0,3.20518.55391l31.38026-22.13231a2.3,2.3,0,0,0,.55391-3.20518l-22.13231-31.38026a2.3,2.3,0,0,0-3.20518-.55392L621.7584,702.29006l7.52384,10.66766A2.31,2.31,0,0,1,628.7276,716.16708Zm-9.95768-11.76926.47888-.33775,7.08119,10.04-10.04,7.08119-.332-.47071a2.3,2.3,0,0,1-.39147-1.721l2.26527-13.10779A2.3,2.3,0,0,1,618.76992,704.39782Z"/><path id="sticky-note-solid-10" data-name="sticky-note-solid" class="cls-2" d="M247.70924,795.71889l7.5645-10.63886-20.65426-14.68569a2.3,2.3,0,0,0-3.20727.54168l-22.25192,31.29557a2.3,2.3,0,0,0,.54168,3.20727l31.29556,22.25191a2.3,2.3,0,0,0,3.20727-.54168l14.68569-20.65425-10.63886-7.56449A2.31,2.31,0,0,1,247.70924,795.71889Zm13.3004,7.79553-.33958.47759-10.01295-7.11946,7.11946-10.013.46943.33378a2.3,2.3,0,0,1,.94065,1.49338l2.21522,13.11634A2.3,2.3,0,0,1,261.00964,803.51442Z"/><path id="sticky-note-solid-11" data-name="sticky-note-solid" class="cls-2" d="M1057.72338,1026.89047l-9.66884,8.77043,17.02689,18.77106a2.3,2.3,0,0,0,3.24884.15829l28.44212-25.79934a2.3,2.3,0,0,0,.15829-3.24884L1071.13134,997.1a2.3,2.3,0,0,0-3.24883-.15829l-18.77106,17.02689,8.77043,9.66884A2.31,2.31,0,0,1,1057.72338,1026.89047Zm-11.3206-10.46493.434-.39371,8.25444,9.1-9.1,8.25445-.387-.42663a2.30005,2.30005,0,0,1-.59873-1.66028l.64735-13.28633A2.3,2.3,0,0,1,1046.40278,1016.42554Z"/><path id="sticky-note-solid-12" data-name="sticky-note-solid" class="cls-2" d="M768.81821,935.38728l12.80633,2.53078,4.91325-24.86217a2.3,2.3,0,0,0-1.81046-2.70226L747.05589,902.909a2.3,2.3,0,0,0-2.70227,1.81046L736.909,942.39091a2.3,2.3,0,0,0,1.81046,2.70227l24.86218,4.91325,2.53078-12.80633A2.31,2.31,0,0,1,768.81821,935.38728Zm-1.649,15.32814-.57488-.11361,2.38189-12.0529,12.0529,2.38189-.11167.56507a2.3,2.3,0,0,1-.97564,1.47076l-11.05109,7.404A2.3,2.3,0,0,1,767.16925,950.71542Z"/><path id="sticky-note-solid-13" data-name="sticky-note-solid" class="cls-2" d="M1739.661,835.58362l-4.36923,12.30109,23.88131,8.4824a2.3,2.3,0,0,0,2.93716-1.39752l12.85262-36.18522a2.3,2.3,0,0,0-1.39752-2.93716l-36.18522-12.85263a2.3,2.3,0,0,0-2.93716,1.39752l-8.4824,23.88131,12.30109,4.36922A2.31,2.31,0,0,1,1739.661,835.58362Zm-14.92445-3.86414.19613-.5522,11.57739,4.11217-4.11217,11.57739-.54278-.19279a2.3,2.3,0,0,1-1.313-1.17948l-5.71527-12.01172A2.3,2.3,0,0,1,1724.73655,831.71948Z"/><path id="sticky-note-solid-14" data-name="sticky-note-solid" class="cls-2" d="M1256.56372,748.88678l-6.01113-11.58763-22.4962,11.67a2.3,2.3,0,0,0-.98253,3.10074l17.68252,34.08649a2.3,2.3,0,0,0,3.10075.98253l34.08648-17.68252a2.3,2.3,0,0,0,.98253-3.10074l-11.67-22.4962-11.58763,6.01114A2.31,2.31,0,0,1,1256.56372,748.88678Zm13.00844-8.27353.26984.52017-10.9059,5.65749-5.65748-10.9059.5113-.26524a2.3,2.3,0,0,1,1.75811-.155l12.68071,4.01812A2.3,2.3,0,0,1,1269.57216,740.61325Z"/><path id="font-solid" class="cls-2" d="M833.11782,475.56514l3.90825,2.50085a2.3207,2.3207,0,0,0,3.2056-.70393l10.00423-15.63429a2.32069,2.32069,0,0,0-.70393-3.20559l-3.90825-2.50086a2.32072,2.32072,0,0,0-3.2056.70393l-1.53015,2.39128-5.99691-7.84813L846.81633,432.632l9.63866,2.15692-1.53016,2.39127a2.32072,2.32072,0,0,0,.70393,3.2056l3.90826,2.50085h0a2.32069,2.32069,0,0,0,3.20559-.70393l10.00423-15.63429a2.32069,2.32069,0,0,0-.70393-3.20559l-3.90825-2.50086h0a2.32072,2.32072,0,0,0-3.2056.70393l-1.82983,2.85961-54.47257-12.35241a4.64141,4.64141,0,0,0-5.01773,2.00535l-3.68573,5.75994a4.63989,4.63989,0,0,0,.28069,5.39755l34.03983,44.284-1.82983,2.85961A2.3207,2.3207,0,0,0,833.11782,475.56514Zm-5.72112-34.10756-12.13183-15.88143,19.50328,4.36156Z"/><path id="font-solid-2" data-name="font-solid" class="cls-2" d="M1226.37442,411.01269l1.43306-4.413a2.32071,2.32071,0,0,0-1.49049-2.924l-17.65366-5.73269a2.32072,2.32072,0,0,0-2.924,1.49049l-1.433,4.41306a2.32069,2.32069,0,0,0,1.49048,2.924l2.70014.87682-6.07973,7.78414-21.04357-6.83349-.34658-9.871,2.70014.87682a2.32071,2.32071,0,0,0,2.924-1.49049l1.43306-4.413h0a2.32072,2.32072,0,0,0-1.49049-2.924l-17.65367-5.73269a2.32072,2.32072,0,0,0-2.924,1.49049l-1.433,4.41306h0a2.32071,2.32071,0,0,0,1.49049,2.924l3.229,1.04854,1.80128,55.82649a4.64141,4.64141,0,0,0,3.20728,4.34885l6.50391,2.112a4.6399,4.6399,0,0,0,5.15181-1.6344l34.25472-44.118,3.229,1.04854A2.32069,2.32069,0,0,0,1226.37442,411.01269Zm-31.558,14.1474-12.30379,15.74858-.704-19.97261Z"/><path id="font-solid-3" data-name="font-solid" class="cls-2" d="M953.289,132.59412l-2.73533,3.74789a2.32072,2.32072,0,0,0,.50645,3.24267l14.99278,10.94221a2.32071,2.32071,0,0,0,3.24267-.50644l2.73533-3.74789a2.32072,2.32072,0,0,0-.50645-3.24267l-2.29315-1.67362,8.20039-5.5054,17.87174,13.04337-2.7427,9.4886-2.29316-1.67362a2.32071,2.32071,0,0,0-3.24267.50644l-2.73533,3.74789h0a2.32072,2.32072,0,0,0,.50645,3.24267l14.99278,10.94221a2.32071,2.32071,0,0,0,3.24267-.50644l2.73533-3.74789h0a2.32071,2.32071,0,0,0-.50645-3.24267L1002.5181,165.65l15.66269-53.61458a4.64142,4.64142,0,0,0-1.69454-5.13105l-5.52359-4.0313a4.63991,4.63991,0,0,0-5.40462-.05013L959.274,134.08908l-2.74227-2.0014A2.32072,2.32072,0,0,0,953.289,132.59412Zm34.39374-3.6232,16.59407-11.13723L998.73,137.03351Z"/><path id="font-solid-4" data-name="font-solid" class="cls-2" d="M1633.86963,39.35141l-3.36529,3.1943a2.32071,2.32071,0,0,0-.08552,3.28086l12.77825,13.46224a2.32072,2.32072,0,0,0,3.28087.08552l3.36528-3.1943a2.32071,2.32071,0,0,0,.08552-3.28086l-1.95444-2.05906,9.05744-3.93938,15.232,16.04729-4.40589,8.83992-1.95444-2.05906a2.32071,2.32071,0,0,0-3.28086-.08552l-3.36529,3.19431h0a2.32071,2.32071,0,0,0-.08552,3.28086L1671.95,89.58077a2.32071,2.32071,0,0,0,3.28086.08551l3.36529-3.1943h0a2.32071,2.32071,0,0,0,.08551-3.28086l-2.33721-2.46233,25.05766-49.91949a4.64144,4.64144,0,0,0-.74325-5.35226l-4.70773-4.95972a4.63989,4.63989,0,0,0-5.30731-1.02216l-51.15608,22.42409-2.33722-2.46232A2.32071,2.32071,0,0,0,1633.86963,39.35141Zm34.48414,2.627,18.32776-7.96832-8.91232,17.88775Z"/><path id="font-solid-5" data-name="font-solid" class="cls-2" d="M487.84059,653.44293l3.56348,2.97158a2.3207,2.3207,0,0,0,3.26859-.296L506.56,641.86339a2.32071,2.32071,0,0,0-.296-3.2686l-3.56348-2.97158a2.3207,2.3207,0,0,0-3.26859.296l-1.81818,2.18032-4.9645-8.53871,14.16995-16.99239,9.29174,3.34957-1.81817,2.18032a2.32071,2.32071,0,0,0,.296,3.2686l3.56348,2.97159h0a2.32072,2.32072,0,0,0,3.2686-.296l11.88731-14.25509a2.32069,2.32069,0,0,0-.296-3.26859l-3.56348-2.97159h0a2.32071,2.32071,0,0,0-3.2686.296l-2.17426,2.60734L471.5142,587.35928a4.64142,4.64142,0,0,0-5.22975,1.35974l-4.37948,5.25181a4.6399,4.6399,0,0,0-.399,5.39011L489.7188,647.567l-2.17426,2.60734A2.32072,2.32072,0,0,0,487.84059,653.44293Zm-1.3952-34.5559L476.4027,601.60856l18.80166,6.77484Z"/><path id="font-solid-6" data-name="font-solid" class="cls-2" d="M1490.19643,862.33632l1.53921-4.37717A2.32071,2.32071,0,0,0,1490.3162,855l-17.51007-6.15734a2.32071,2.32071,0,0,0-2.95915,1.41944l-1.53921,4.37716a2.32071,2.32071,0,0,0,1.41944,2.95915l2.67818.94177-6.26595,7.63505-20.87241-7.33969-.10809-9.87645,2.67818.94177a2.32071,2.32071,0,0,0,2.95915-1.41944l1.53921-4.37716h0a2.32071,2.32071,0,0,0-1.41944-2.95915l-17.51008-6.15735a2.32071,2.32071,0,0,0-2.95915,1.41944l-1.53921,4.37716h0a2.32071,2.32071,0,0,0,1.41944,2.95915l3.2027,1.12622.45257,55.85371a4.64142,4.64142,0,0,0,3.10132,4.425l6.451,2.26847a4.63991,4.63991,0,0,0,5.18978-1.50951l35.31017-43.2779,3.2027,1.12621A2.32071,2.32071,0,0,0,1490.19643,862.33632ZM1458.306,875.71747l-12.68053,15.44686-.22148-19.98379Z"/><path id="font-solid-7" data-name="font-solid" class="cls-2" d="M1232.89122,1020.4902l4.59057-.67483a2.32071,2.32071,0,0,0,1.95851-2.63356l-2.69954-18.36377a2.3207,2.3207,0,0,0-2.63355-1.95851l-4.59057.67483a2.32071,2.32071,0,0,0-1.95851,2.63356l.4129,2.80875-9.674-1.99253-3.2179-21.89,8.69129-4.69228.41289,2.80875a2.3207,2.3207,0,0,0,2.63356,1.95851l4.59057-.67483h0a2.32071,2.32071,0,0,0,1.95851-2.63355l-2.69954-18.36378a2.3207,2.3207,0,0,0-2.63355-1.9585l-4.59057.67482h0a2.32071,2.32071,0,0,0-1.95851,2.63356l.49376,3.35884-49.22522,26.39545a4.6414,4.6414,0,0,0-2.47319,4.80442l.99455,6.76553a4.63989,4.63989,0,0,0,3.75143,3.8909l54.73877,11.11089.49376,3.35885A2.32072,2.32072,0,0,0,1232.89122,1020.4902Zm-26.68574-21.99837-19.57358-4.03435,17.58447-9.49669Z"/><path id="font-solid-8" data-name="font-solid" class="cls-2" d="M1725.58124,720.57553l3.96147,2.41569a2.32071,2.32071,0,0,0,3.18961-.77314l9.66353-15.84714a2.32071,2.32071,0,0,0-.77315-3.18961l-3.96146-2.41569a2.32071,2.32071,0,0,0-3.18961.77314l-1.478,2.42383-6.16535-7.7165,11.51914-18.89015,9.68308,1.94781-1.478,2.42383a2.32071,2.32071,0,0,0,.77314,3.18961l3.96147,2.41568h0a2.3207,2.3207,0,0,0,3.18961-.77314l9.66353-15.84714a2.32071,2.32071,0,0,0-.77314-3.18961l-3.96147-2.41568h0a2.32069,2.32069,0,0,0-3.18961.77314l-1.76752,2.89853-54.72714-11.1706a4.64141,4.64141,0,0,0-4.97316,2.11347l-3.5602,5.83835a4.6399,4.6399,0,0,0,.39744,5.39022l34.99026,43.537-1.76752,2.89854A2.32071,2.32071,0,0,0,1725.58124,720.57553Zm-6.45794-33.97575-12.47269-15.61515,19.5931,3.93845Z"/><path id="font-solid-9" data-name="font-solid" class="cls-2" d="M1770.69545,334.82846l4.103-2.16657a2.3207,2.3207,0,0,0,.96854-3.13581L1767.1,313.1127a2.32071,2.32071,0,0,0-3.13581-.96854l-4.103,2.16657a2.32071,2.32071,0,0,0-.96853,3.13581l1.32562,2.51044-9.78484,1.34644-10.33125-19.56512,6.62988-7.32125,1.32562,2.51043a2.3207,2.3207,0,0,0,3.13581.96854l4.103-2.16657h0a2.32071,2.32071,0,0,0,.96853-3.13581l-8.667-16.41338a2.32072,2.32072,0,0,0-3.13581-.96854l-4.103,2.16657h0a2.32071,2.32071,0,0,0-.96854,3.13582l1.58524,3.0021-37.61,41.29562a4.64141,4.64141,0,0,0-.73009,5.35407l3.19307,6.047a4.6399,4.6399,0,0,0,4.83394,2.41773l55.31156-7.77279,1.58524,3.00211A2.32072,2.32072,0,0,0,1770.69545,334.82846Zm-32.49277-11.84386-19.79883,2.72162,13.41271-14.81554Z"/><path id="font-solid-10" data-name="font-solid" class="cls-2" d="M43.82952,255.58776l-3.261-3.3007a2.32071,2.32071,0,0,0-3.28191-.01985L24.08274,265.31227a2.32071,2.32071,0,0,0-.01985,3.28192l3.261,3.3007a2.32071,2.32071,0,0,0,3.28191.01985l2.01954-1.99525,4.11982,8.97681-15.7393,15.55-8.92631-4.22813,2.01954-1.99525A2.32071,2.32071,0,0,0,14.119,284.941l-3.261-3.30069h0a2.32071,2.32071,0,0,0-3.28192-.01986L-5.62783,294.66553a2.32069,2.32069,0,0,0-.01985,3.28191l3.261,3.3007h0a2.32069,2.32069,0,0,0,3.28191.01985l2.41507-2.386,50.41088,24.0538a4.64143,4.64143,0,0,0,5.33632-.85019l4.86453-4.806a4.63992,4.63992,0,0,0,.91576-5.32671L41.3946,261.2557l2.41506-2.386A2.32071,2.32071,0,0,0,43.82952,255.58776Zm-1.93645,34.5298,8.33345,18.16465L32.164,299.7296Z"/><path id="font-solid-11" data-name="font-solid" class="cls-2" d="M280.69086,456.49684l.22646-4.63437a2.32071,2.32071,0,0,0-2.20468-2.43121l-18.539-.90591a2.32072,2.32072,0,0,0-2.43121,2.20468l-.22645,4.63437a2.3207,2.3207,0,0,0,2.20467,2.43121l2.83556.13856-3.82729,9.10538L236.63,465.95969l-2.92131-9.43515,2.83555.13856a2.3207,2.3207,0,0,0,2.43121-2.20467l.22646-4.63438h0a2.32071,2.32071,0,0,0-2.20468-2.43121l-18.539-.9059a2.32071,2.32071,0,0,0-2.43121,2.20467l-.22645,4.63438h0a2.32071,2.32071,0,0,0,2.20467,2.43121l3.3909.16569,16.36854,53.40331a4.64142,4.64142,0,0,0,4.23487,3.35634l6.83009.33375a4.6399,4.6399,0,0,0,4.54343-2.92739l21.4957-51.55308,3.3909.1657A2.32071,2.32071,0,0,0,280.69086,456.49684Zm-26.74751,21.92322-7.74661,18.42257-5.91356-19.09007Z"/><path id="font-solid-12" data-name="font-solid" class="cls-2" d="M36.9888,759.86106l-4.58128-.73519a2.3207,2.3207,0,0,0-2.65911,1.92367l-2.941,18.32665a2.32069,2.32069,0,0,0,1.92367,2.6591l4.58129.7352a2.32071,2.32071,0,0,0,2.6591-1.92368l.44983-2.80307L45.05007,782.85l-3.50576,21.84578-9.69936,1.865.44983-2.80307a2.32071,2.32071,0,0,0-1.92367-2.65911l-4.58129-.73519h0a2.3207,2.3207,0,0,0-2.65911,1.92367l-2.941,18.32665a2.32071,2.32071,0,0,0,1.92367,2.65911l4.58129.73519h0a2.32071,2.32071,0,0,0,2.65911-1.92367l.53793-3.35206,54.88051-10.39091a4.6414,4.6414,0,0,0,3.80208-3.8397l1.08352-6.75185a4.6399,4.6399,0,0,0-2.4095-4.838l-48.87376-27.0396.53793-3.352A2.32072,2.32072,0,0,0,36.9888,759.86106Zm18.84588,28.9981,17.458,9.72733-19.625,3.77636Z"/><path id="shapes-solid" class="cls-3" d="M665.4898,439.764l-.00012-.0015a16.213,16.213,0,1,1,.00012.0015Zm-29.83458,25.50406a4.62473,4.62473,0,0,1,3.50584-7.227l26.934-2.09547a4.62472,4.62472,0,0,1,4.58893,6.59726l-11.68123,24.08872a4.709,4.709,0,0,1-8.08277.62884l-15.26656-21.9952Zm2.54988-11.2102-.003.00024a4.04381,4.04381,0,0,1-4.34391-3.71959l-1.56854-20.16115-.00035-.0045a4.0438,4.0438,0,0,1,3.71958-4.3439L656.17,424.26044l.003-.00024a4.04382,4.04382,0,0,1,4.34252,3.72121l1.56842,20.15965h0a4.04382,4.04382,0,0,1-3.718,4.34529l-20.16115,1.56853Z"/><path id="shapes-solid-2" data-name="shapes-solid" class="cls-3" d="M409.15746,866.14333l.0014.00054a16.17971,16.17971,0,1,1-.0014-.00054Zm-10.14321-37.91668a4.62473,4.62473,0,0,1,5.00837,6.27991l-9.72553,25.20412a4.62472,4.62472,0,0,1-7.93127,1.29495l-16.69542-20.928A4.709,4.709,0,0,1,372.589,832.514l26.42862-4.28771Zm9.01434,7.13528.00108-.00281a4.04382,4.04382,0,0,1,5.22932-2.315l18.86624,7.27992.00421.00163a4.0438,4.0438,0,0,1,2.315,5.22931l-7.27992,18.86624-.00108.00281a4.04382,4.04382,0,0,1-5.23018,2.313l-18.86484-7.27938h0a4.04383,4.04383,0,0,1-2.31692-5.22846L408.0314,835.363Z"/><path id="shapes-solid-3" data-name="shapes-solid" class="cls-3" d="M966.87586,854.58905l-.00058-.00139a16.154,16.154,0,1,1,.00058.00139ZM946.5488,888.16538a4.62472,4.62472,0,0,1,1.06154-7.962l24.91685-10.43957a4.62471,4.62471,0,0,1,6.427,4.82452l-3.53424,26.53727a4.709,4.709,0,0,1-7.47741,3.13286l-21.39627-16.09523Zm-1.09578-11.4442-.00277.00116a4.04381,4.04381,0,0,1-5.29153-2.169l-7.81442-18.6512-.00174-.00416a4.04381,4.04381,0,0,1,2.169-5.29153l18.6512-7.81442.00278-.00116a4.04382,4.04382,0,0,1,5.29072,2.171l7.81383,18.64981h0a4.04381,4.04381,0,0,1-2.167,5.29234l-18.6512,7.81441Z"/><path id="shapes-solid-4" data-name="shapes-solid" class="cls-3" d="M1505.87853,426.1106l0,.00151a16.10509,16.10509,0,1,1,0-.00151Zm32.22318-22.4104a4.62473,4.62473,0,0,1-4.20724,6.84253l-27.00891-.59366a4.62473,4.62473,0,0,1-3.91-7.021l14.01907-22.80752a4.709,4.709,0,0,1,8.10523.17815l13.00333,23.40449Zm-3.65216,10.901.003.00007a4.04381,4.04381,0,0,1,3.95244,4.13317l-.44438,20.21719-.0001.00451a4.04381,4.04381,0,0,1-4.13317,3.95244l-20.21719-.44438-.003-.00007a4.04381,4.04381,0,0,1-3.95089-4.13464l.44434-20.21568h0a4.04381,4.04381,0,0,1,4.1317-3.954l20.21719.44438Z"/><path id="shapes-solid-5" data-name="shapes-solid" class="cls-3" d="M1810.3713,389.197l.00065-.00136a16.14366,16.14366,0,1,1-.00065.00136Zm-38.5736,7.25513a4.62473,4.62473,0,0,1,6.6397-4.52055l24.399,11.59841a4.62473,4.62473,0,0,1,.69319,8.00634l-22.12736,15.06976a4.709,4.709,0,0,1-7.322-3.48062l-2.28258-26.6767Zm7.79471-8.45062-.00271-.00129a4.04381,4.04381,0,0,1-1.91406-5.389l8.68185-18.26356.00194-.00408a4.04381,4.04381,0,0,1,5.389-1.91405l18.26357,8.68184.00271.00129a4.04381,4.04381,0,0,1,1.91205,5.38971l-8.6812,18.26221h0a4.04381,4.04381,0,0,1-5.38828,1.916l-18.26356-8.68184Z"/><path id="shapes-solid-6" data-name="shapes-solid" class="cls-3" d="M241.241,950.95353l-.00111.001a16.1394,16.1394,0,1,1,.00111-.001Zm38.50149,7.62856a4.62473,4.62473,0,0,1-7.84544,1.72338l-18.32631-19.84893a4.62472,4.62472,0,0,1,2.33764-7.68879l26.14732-5.74762a4.709,4.709,0,0,1,5.49963,5.95657l-7.814,25.60854Zm-10.38069,4.94083.002.00221a4.04382,4.04382,0,0,1-.23,5.71419l-14.85768,13.71794-.00331.00306a4.04382,4.04382,0,0,1-5.71419-.23L234.84071,967.8726l-.002-.00221a4.04381,4.04381,0,0,1,.23217-5.7141l14.85657-13.71692h0a4.04382,4.04382,0,0,1,5.71427.22792L269.35961,963.525Z"/><path id="shapes-solid-7" data-name="shapes-solid" class="cls-3" d="M472.9446,1039.47428l-.00149-.00015a16.16779,16.16779,0,1,1,.00149.00015Zm19.8397,33.86659a4.62472,4.62472,0,0,1-6.495-4.726l2.68984-26.8812a4.62473,4.62473,0,0,1,7.30345-3.35286l21.64965,15.74834a4.709,4.709,0,0,1-.80721,8.0669l-24.34383,11.146Zm-10.5844-4.48788-.0003.003a4.04381,4.04381,0,0,1-4.42769,3.61945l-20.12159-2.01345-.00449-.00045a4.0438,4.0438,0,0,1-3.61944-4.42769l2.01344-20.12159.0003-.003a4.04381,4.04381,0,0,1,4.429-3.61779l20.12009,2.0133h0a4.0438,4.0438,0,0,1,3.62109,4.42634l-2.01344,20.12159Z"/><path id="shapes-solid-8" data-name="shapes-solid" class="cls-3" d="M258.9427,183.29536l.00139-.00057a16.279,16.279,0,1,1-.00139.00057Zm-33.29233-20.789a4.62473,4.62473,0,0,1,7.94662,1.17143l10.09437,25.05868a4.62473,4.62473,0,0,1-4.91285,6.35972l-26.48591-3.90049a4.709,4.709,0,0,1-3.02927-7.52l16.38927-21.17188Zm11.45825-.93758-.00112-.00279a4.04381,4.04381,0,0,1,2.24189-5.26106l18.75737-7.556.00418-.00168a4.0438,4.0438,0,0,1,5.26106,2.24189l7.556,18.75737.00113.00279a4.04383,4.04383,0,0,1-2.24385,5.26023l-18.756,7.55545h0a4.04381,4.04381,0,0,1-5.26189-2.23993l-7.556-18.75737Z"/><path id="shapes-solid-9" data-name="shapes-solid" class="cls-3" d="M618.35635,32.42645l-.00137-.00063a16.2074,16.2074,0,1,1,.00137.00063Zm7.67456,38.49234a4.62472,4.62472,0,0,1-4.59255-6.59009L632.7705,39.80491a4.62473,4.62473,0,0,1,7.99833-.7803l15.30971,21.962a4.709,4.709,0,0,1-3.40072,7.35946L626.02755,70.9189Zm-8.535-7.70226-.00126.00273a4.04382,4.04382,0,0,1-5.36784,1.9726l-18.357-8.48254-.0041-.0019a4.04381,4.04381,0,0,1-1.9726-5.36784l8.48254-18.357.00126-.00273a4.04381,4.04381,0,0,1,5.36858-1.9706l18.35561,8.48191h0a4.04381,4.04381,0,0,1,1.9746,5.3671l-8.48254,18.357Z"/><path id="shapes-solid-10" data-name="shapes-solid" class="cls-3" d="M1147.698,59.93015l.00142.0005a16.20409,16.20409,0,1,1-.00142-.0005Zm-11.20346-37.617a4.62473,4.62473,0,0,1,5.18266,6.13686l-9.01426,25.46717a4.62472,4.62472,0,0,1-7.8918,1.51706l-17.27625-20.45113A4.709,4.709,0,0,1,1110.2,27.34051l26.29786-5.02782Zm9.21106,6.87945.001-.00283a4.0438,4.0438,0,0,1,5.16227-2.46084L1169.932,33.4764l.00425.0015a4.04382,4.04382,0,0,1,2.46084,5.16228l-6.74751,19.06314-.001.00284a4.04381,4.04381,0,0,1-5.16319,2.45892l-19.06172-6.747h0a4.04381,4.04381,0,0,1-2.46276-5.16136l6.74751-19.06314Z"/><path id="shapes-solid-11" data-name="shapes-solid" class="cls-3" d="M1312.837,66.85916l.00139.00058a16.1446,16.1446,0,1,1-.00139-.00058Zm-9.19242-38.15834a4.62472,4.62472,0,0,1,4.84985,6.40311L1298.142,60.05713a4.62472,4.62472,0,0,1-7.96116,1.09633l-16.16717-21.3387a4.709,4.709,0,0,1,3.1067-7.48832l26.52753-3.62586Zm8.8332,7.35834.00115-.00278a4.04381,4.04381,0,0,1,5.28554-2.18356l18.6784,7.74915.00417.00173a4.04381,4.04381,0,0,1,2.18356,5.28554l-7.74915,18.67841-.00115.00278a4.04382,4.04382,0,0,1-5.28636,2.18159l-18.677-7.74858h0a4.0438,4.0438,0,0,1-2.18553-5.28472l7.74916-18.67841Z"/><path id="shapes-solid-12" data-name="shapes-solid" class="cls-3" d="M532.01085,350.57255l.00144.00046a16.23431,16.23431,0,1,1-.00144-.00046ZM519.7772,313.27782a4.62473,4.62473,0,0,1,5.34946,5.992l-8.31053,25.70542a4.62474,4.62474,0,0,1-7.84711,1.7335l-17.83209-19.96831a4.709,4.709,0,0,1,2.49394-7.71407l26.14966-5.74907Zm9.39676,6.62355.00092-.00286a4.04382,4.04382,0,0,1,5.09266-2.60186l19.24148,6.22074.00429.00139a4.04382,4.04382,0,0,1,2.60187,5.09266l-6.22075,19.24148-.00092.00286a4.04381,4.04381,0,0,1-5.09363,2.6l-19.24-6.22028h0a4.04382,4.04382,0,0,1-2.60376-5.09169l6.22075-19.24148Z"/><path id="shapes-solid-13" data-name="shapes-solid" class="cls-3" d="M1575.26053,559.4824l-.00127.0008a16.19269,16.19269,0,1,1,.00127-.0008ZM1611.7114,574.039a4.62473,4.62473,0,0,1-8.02841.25612l-14.37753-22.87182a4.62472,4.62472,0,0,1,3.70737-7.13l26.75785-.85746a4.709,4.709,0,0,1,4.31462,6.86371l-12.37565,23.74237Zm-11.11046,2.95436.0016.00254a4.04381,4.04381,0,0,1-1.27355,5.57521l-17.12042,10.76213-.00382.0024a4.04382,4.04382,0,0,1-5.57521-1.27355l-10.76212-17.12042-.0016-.00255a4.0438,4.0438,0,0,1,1.27562-5.57473l17.11915-10.76133h0a4.04382,4.04382,0,0,1,5.57568,1.27147l10.76212,17.12043Z"/><path id="shapes-solid-14" data-name="shapes-solid" class="cls-3" d="M947.669,668.96316l.00077.00129a16.2342,16.2342,0,1,1-.00077-.00129Zm15.51886-36.05169a4.62472,4.62472,0,0,1,.043,8.03238l-23.24535,13.76544a4.62472,4.62472,0,0,1-7.02913-3.89531l-.147-26.77117a4.709,4.709,0,0,1,6.97581-4.13094l23.40555,13.00142Zm2.65845,11.18495.00259-.00153a4.04381,4.04381,0,0,1,5.53944,1.42106l10.30395,17.4.0023.00388a4.04381,4.04381,0,0,1-1.42106,5.53944l-17.4,10.30395-.0026.00154a4.04381,4.04381,0,0,1-5.53891-1.42313l-10.30319-17.39873h0a4.04382,4.04382,0,0,1,1.419-5.54l17.4-10.30395Z"/><path id="shapes-solid-15" data-name="shapes-solid" class="cls-3" d="M731.05146,807.19893l-.00086-.00124a16.17129,16.17129,0,1,1,.00086.00124Zm-12.88081,37.07619a4.62472,4.62472,0,0,1-.62162-8.0084l22.19306-15.40461a4.62472,4.62472,0,0,1,7.29153,3.37869l2.07563,26.691a4.709,4.709,0,0,1-6.66,4.62284l-24.28153-11.28113Zm-3.45747-10.96432-.00247.00171a4.04381,4.04381,0,0,1-5.62744-1.01822L697.55234,815.682l-.00257-.00371a4.04381,4.04381,0,0,1,1.01822-5.62744l16.61234-11.53093.00248-.00172a4.04381,4.04381,0,0,1,5.627,1.02032l11.53008,16.61111h0a4.04381,4.04381,0,0,1-1.01613,5.62781l-16.61234,11.53094Z"/><path id="shapes-solid-16" data-name="shapes-solid" class="cls-3" d="M77.27516,530.66983l.00074-.00131a16.20072,16.20072,0,1,1-.00074.00131ZM38.28009,535.1357a4.62473,4.62473,0,0,1,6.94723-4.032L68.73025,544.4246a4.62473,4.62473,0,0,1,.11635,8.03546L45.694,565.90161a4.709,4.709,0,0,1-7.05311-3.99753l-.36065-26.77175Zm8.38154-7.869-.00261-.00148a4.04381,4.04381,0,0,1-1.52205-5.51255l9.97119-17.59283.00222-.00393a4.04382,4.04382,0,0,1,5.51255-1.522l17.59283,9.9712.00262.00148a4.04382,4.04382,0,0,1,1.52,5.51312l-9.97045,17.59152h0a4.04382,4.04382,0,0,1-5.512,1.5241l-17.59282-9.9712Z"/><path id="shapes-solid-17" data-name="shapes-solid" class="cls-3" d="M1849.74384,553.01553l.00146-.00037a16.16708,16.16708,0,1,1-.00146.00037Zm-30.214-25.0534a4.62472,4.62472,0,0,1,7.71865,2.22335l6.65348,26.1833a4.62473,4.62473,0,0,1-5.719,5.64579L1802.4563,554.608a4.709,4.709,0,0,1-1.99667-7.85747l19.07274-18.79061Zm11.48073.60277-.00074-.00291a4.04382,4.04382,0,0,1,2.92515-4.9141l19.59919-4.98038.00437-.00111a4.04381,4.04381,0,0,1,4.91409,2.92516l4.98038,19.59918.00074.00292a4.0438,4.0438,0,0,1-2.927,4.913l-19.59773,4.98h0a4.04381,4.04381,0,0,1-4.91518-2.92332l-4.98038-19.59919Z"/><path id="shapes-solid-18" data-name="shapes-solid" class="cls-3" d="M954.67355,397.12831l-.0003-.00148a16.25874,16.25874,0,1,1,.0003.00148Zm-26.64291,28.82212a4.62473,4.62473,0,0,1,2.63547-7.58783l26.50338-5.23493a4.62472,4.62472,0,0,1,5.32987,6.01453L953.7192,444.433a4.709,4.709,0,0,1-7.95353,1.571l-17.73709-20.05622Zm1.21967-11.43166-.003.00059a4.04382,4.04382,0,0,1-4.74957-3.18535l-3.91854-19.83878-.00088-.00443a4.04382,4.04382,0,0,1,3.18534-4.74957l19.83879-3.91854.003-.00059a4.04383,4.04383,0,0,1,4.74839,3.18711l3.91825,19.83731h0a4.04382,4.04382,0,0,1-3.18358,4.75076l-19.83878,3.91854Z"/><path id="shapes-solid-19" data-name="shapes-solid" class="cls-3" d="M752.59052,298.01213l-.00114.001a16.06924,16.06924,0,1,1,.00114-.001Zm38.26669,8.73039a4.62473,4.62473,0,0,1-7.89167,1.49751l-17.7491-20.36672a4.62471,4.62471,0,0,1,2.55734-7.61853l26.3015-4.99483a4.709,4.709,0,0,1,5.32642,6.11195l-8.54577,25.37373ZM780.339,311.3834l.002.00226a4.0438,4.0438,0,0,1-.39394,5.70523l-15.24525,13.28588-.0034.003a4.04381,4.04381,0,0,1-5.70523-.39394l-13.28588-15.24525-.002-.00227a4.04382,4.04382,0,0,1,.39607-5.70509l15.24412-13.28488h0a4.04381,4.04381,0,0,1,5.70538.39182l13.28587,15.24525Z"/><path id="shapes-solid-20" data-name="shapes-solid" class="cls-3" d="M1193.08005,202.586l.00108-.001a16.118,16.118,0,1,1-.00108.001Zm-38.67815-6.67534a4.62473,4.62473,0,0,1,7.80049-1.91662l18.81093,19.39027a4.62473,4.62473,0,0,1-2.147,7.74418l-25.9974,6.39163a4.709,4.709,0,0,1-5.64506-5.81892l7.17918-25.79372Zm10.2555-5.1957-.0021-.00216a4.04382,4.04382,0,0,1,.08885-5.71813L1179.2585,170.914l.00323-.00315a4.04382,4.04382,0,0,1,5.71813.08885l14.0807,14.51435.00209.00216a4.04382,4.04382,0,0,1-.091,5.71809L1184.45841,205.314h0a4.04382,4.04382,0,0,1-5.71816-.08672l-14.08069-14.51435Z"/><path id="shapes-solid-21" data-name="shapes-solid" class="cls-3" d="M1541.81155,242.241l-.00011.0015a16.18274,16.18274,0,1,1,.00011-.0015Zm33.3351-20.7203a4.62474,4.62474,0,0,1-4.55421,6.61666L1543.65,226.15283a4.62472,4.62472,0,0,1-3.54309-7.21308l15.17563-22.05488a4.709,4.709,0,0,1,8.08529.59554l11.78011,24.04341Zm-4.209,10.69836.003.00022a4.04381,4.04381,0,0,1,3.73422,4.33133l-1.48549,20.16744-.00034.0045a4.04381,4.04381,0,0,1-4.33133,3.73422l-20.16744-1.48549-.003-.00023a4.04382,4.04382,0,0,1-3.73261-4.33272l1.48539-20.16594h0a4.04381,4.04381,0,0,1,4.32994-3.73583l20.16744,1.4855Z"/><path id="shapes-solid-22" data-name="shapes-solid" class="cls-3" d="M1237.98165,282.26085l-.0013-.00077a16.10962,16.10962,0,1,1,.0013.00077Zm3.88478,39.05723a4.62473,4.62473,0,0,1-3.9281-7.00649l13.66935-23.302a4.62472,4.62472,0,0,1,8.03629.0033l13.09536,23.35014a4.709,4.709,0,0,1-4.1021,6.99281l-26.77415-.038Zm-7.74328-8.49777-.00152.0026a4.04382,4.04382,0,0,1-5.5346,1.43981l-17.44242-10.232-.00389-.00228a4.04381,4.04381,0,0,1-1.43981-5.5346l10.232-17.44242.00153-.0026a4.0438,4.0438,0,0,1,5.53513-1.43774l17.44113,10.23126h0a4.04381,4.04381,0,0,1,1.44186,5.53406l-10.232,17.44242Z"/><path id="shapes-solid-23" data-name="shapes-solid" class="cls-3" d="M521.792,170.185l-.00066.00135a16.14939,16.14939,0,1,1,.00066-.00135Zm38.63893-6.89876a4.62472,4.62472,0,0,1-6.68114,4.45907L529.45889,155.9222a4.62472,4.62472,0,0,1-.61926-8.0124l22.26552-14.86486a4.709,4.709,0,0,1,7.28957,3.54806l2.03624,26.69663Zm-7.87239,8.37831.00271.00131a4.04383,4.04383,0,0,1,1.86423,5.40644L545.5754,195.255l-.002.00406a4.04382,4.04382,0,0,1-5.40643,1.86423l-18.18265-8.85006-.00271-.00132a4.04382,4.04382,0,0,1-1.86221-5.40713l8.8494-18.18129h0a4.04381,4.04381,0,0,1,5.40574-1.86624l18.18265,8.85006Z"/><path id="shapes-solid-24" data-name="shapes-solid" class="cls-3" d="M252.53453,75.37588l-.00062.00137a16.23323,16.23323,0,1,1,.00062-.00137Zm38.45775-7.84606a4.62473,4.62473,0,0,1-6.56956,4.62189L259.84867,60.929a4.62471,4.62471,0,0,1-.81594-7.99476l21.89355-15.40746a4.709,4.709,0,0,1,7.37455,3.36788l2.69158,26.63855ZM283.32814,76.099l.00273.00125a4.04381,4.04381,0,0,1,1.99651,5.359l-8.40063,18.39461-.00188.00411a4.04381,4.04381,0,0,1-5.359,1.9965l-18.39461-8.40063-.00274-.00125a4.04381,4.04381,0,0,1-1.99451-5.35974l8.4-18.39324h0a4.04381,4.04381,0,0,1,5.35825-1.99849l18.39461,8.40063Z"/><path id="shapes-solid-25" data-name="shapes-solid" class="cls-3" d="M345.41355,613.00387l0,.00151a16.12809,16.12809,0,1,1,0-.00151Zm31.18457-23.83447a4.62472,4.62472,0,0,1-3.89579,7.02451l-27.00834.61951a4.62472,4.62472,0,0,1-4.2213-6.83832l12.981-23.41392a4.709,4.709,0,0,1,8.10506-.18591l14.041,22.7971Zm-3.15907,11.054.003-.00007a4.04381,4.04381,0,0,1,4.134,3.95156l.46373,20.21676.0001.00451a4.0438,4.0438,0,0,1-3.95155,4.134l-20.21676.46373-.003.00007a4.04383,4.04383,0,0,1-4.13254-3.9531l-.46369-20.21525h0a4.04381,4.04381,0,0,1,3.95-4.13548l20.21675-.46373Z"/><path id="shapes-solid-26" data-name="shapes-solid" class="cls-3" d="M1154.00915,845.58828l-.00028.00148a16.11771,16.11771,0,1,1,.00028-.00148Zm35.40379-16.94494a4.62473,4.62473,0,0,1-5.25145,6.07809l-26.563-4.92323a4.62472,4.62472,0,0,1-2.73183-7.55772l17.49971-20.26024a4.709,4.709,0,0,1,7.97144,1.47743l9.07611,25.1889Zm-5.35532,10.173.003.00055a4.04381,4.04381,0,0,1,3.23741,4.71424l-3.68522,19.88344-.00082.00444a4.04381,4.04381,0,0,1-4.71424,3.23741l-19.88344-3.68522-.003-.00055a4.04383,4.04383,0,0,1-3.23566-4.71544l3.68495-19.882h0a4.04381,4.04381,0,0,1,4.713-3.23916l19.88345,3.68522Z"/><path id="shapes-solid-27" data-name="shapes-solid" class="cls-3" d="M1321.72933,621.96948l-.00149-.00023a16.1439,16.1439,0,1,1,.00149.00023Zm18.07566,34.84006a4.62473,4.62473,0,0,1-6.244-5.0531l4.06572-26.70775a4.62473,4.62473,0,0,1,7.46588-2.97366l20.813,16.83855a4.709,4.709,0,0,1-1.2201,8.01485l-24.88373,9.88215Zm-10.34015-5.02512-.00045.003a4.04381,4.04381,0,0,1-4.60759,3.38746l-19.99176-3.04334-.00446-.00068a4.04382,4.04382,0,0,1-3.38747-4.6076l3.04335-19.99175.00045-.003a4.04381,4.04381,0,0,1,4.60885-3.38575l19.99027,3.04312h0a4.04381,4.04381,0,0,1,3.38918,4.60633l-3.04334,19.99176Z"/><path id="shapes-solid-28" data-name="shapes-solid" class="cls-3" d="M1268.16045,487.28128l.00066-.00135a16.09708,16.09708,0,1,1-.00066.00135Zm-38.61618,7.02494a4.62473,4.62473,0,0,1,6.66654-4.48087l24.32938,11.74372a4.62473,4.62473,0,0,1,.64542,8.01034l-22.21684,14.93751a4.709,4.709,0,0,1-7.30112-3.52423l-2.12343-26.68984Zm7.845-8.404-.0027-.00131a4.0438,4.0438,0,0,1-1.88188-5.40031l8.79062-18.21146.002-.00406a4.0438,4.0438,0,0,1,5.40031-1.88188l18.21146,8.79062.00271.00131a4.04381,4.04381,0,0,1,1.87987,5.401l-8.79,18.21011h0a4.04381,4.04381,0,0,1-5.39961,1.88388l-18.21146-8.79062Z"/><path id="shapes-solid-29" data-name="shapes-solid" class="cls-3" d="M1557.85346,97.14122l.00138-.00059a16.12119,16.12119,0,1,1-.00138.00059Zm-33.79307-19.96465a4.62472,4.62472,0,0,1,7.973.97582l10.707,24.80309a4.62473,4.62473,0,0,1-4.7551,6.4785l-26.57376-3.24853a4.709,4.709,0,0,1-3.21312-7.44328l15.8641-21.56818Zm11.43175-1.21884-.00119-.00276a4.04381,4.04381,0,0,1,2.11195-5.31456l18.566-8.01462.00415-.00179a4.04381,4.04381,0,0,1,5.31455,2.112l8.01463,18.56605.00119.00276a4.04381,4.04381,0,0,1-2.11393,5.31377l-18.56466,8.014h0a4.04382,4.04382,0,0,1-5.31535-2.11l-8.01462-18.566Z"/><path id="shapes-solid-30" data-name="shapes-solid" class="cls-3" d="M1814.58671,161.82219l.00047.00143a16.19647,16.19647,0,1,1-.00047-.00143Zm22.95736-31.83581a4.62473,4.62473,0,0,1-1.6974,7.8511l-25.67462,8.40523a4.62472,4.62472,0,0,1-6.01885-5.325l5.65357-26.16781a4.709,4.709,0,0,1,7.70482-2.52236l20.03486,17.76122Zm.17336,11.49524.00286-.00094a4.04381,4.04381,0,0,1,5.10029,2.58687l6.29163,19.21842.0014.00429a4.04381,4.04381,0,0,1-2.58687,5.10029l-19.21841,6.29163-.00287.00094a4.04381,4.04381,0,0,1-5.09932-2.58877l-6.29117-19.217h0a4.04381,4.04381,0,0,1,2.585-5.10125l19.21842-6.29163Z"/><path id="shapes-solid-31" data-name="shapes-solid" class="cls-3" d="M1618.83025,245.81452l-.00149-.00016a16.18891,16.18891,0,1,1,.00149.00016Zm19.57,34.02315a4.62472,4.62472,0,0,1-6.45729-4.77748l2.90333-26.859a4.62472,4.62472,0,0,1,7.32986-3.29472L1663.7,260.82633a4.709,4.709,0,0,1-.87127,8.06024l-24.43162,10.95228Zm-10.5484-4.57184-.00033.003a4.04381,4.04381,0,0,1-4.45631,3.58416l-20.10495-2.17326-.00449-.00048a4.04381,4.04381,0,0,1-3.58415-4.45631l2.17325-20.105.00032-.003a4.04382,4.04382,0,0,1,4.45765-3.58249l20.10346,2.17309h0a4.04381,4.04381,0,0,1,3.58581,4.455l-2.17325,20.105Z"/><path id="shapes-solid-32" data-name="shapes-solid" class="cls-3" d="M1578.52749,896.97294l-.001-.00115a16.17884,16.17884,0,1,1,.001.00115Zm-9.3498,38.12009a4.62473,4.62473,0,0,1-1.36934-7.91492l20.65187-17.41649a4.62472,4.62472,0,0,1,7.57606,2.68055l4.56765,26.37905a4.709,4.709,0,0,1-6.19752,5.22659l-25.23181-8.95611Zm-4.4697-10.59209-.0023.00194a4.0438,4.0438,0,0,1-5.69809-.48641l-13.0369-15.4587-.00291-.00345a4.04381,4.04381,0,0,1,.4864-5.69809l15.45871-13.0369.0023-.00194a4.04381,4.04381,0,0,1,5.69791.48853l13.03593,15.45755h0a4.04381,4.04381,0,0,1-.48429,5.69827l-15.4587,13.0369Z"/><path id="shapes-solid-33" data-name="shapes-solid" class="cls-3" d="M1398.14717,1061.07658l.00078.00129a16.21538,16.21538,0,1,1-.00078-.00129Zm15.27157-36.15714a4.62473,4.62473,0,0,1,.098,8.0319l-23.15053,13.92433a4.62471,4.62471,0,0,1-7.05564-3.84707l-.33037-26.76953a4.709,4.709,0,0,1,6.94736-4.17862l23.49405,12.84079Zm2.735,11.16649.00258-.00155a4.04382,4.04382,0,0,1,5.549,1.38308l10.42289,17.329.00232.00387a4.04381,4.04381,0,0,1-1.38309,5.54905l-17.329,10.42289-.00258.00155a4.04382,4.04382,0,0,1-5.54853-1.38515l-10.42211-17.32776h0a4.04382,4.04382,0,0,1,1.381-5.54956l17.329-10.42289Z"/><path id="shapes-solid-34" data-name="shapes-solid" class="cls-3" d="M581.96312,836.14752l.00038.00145a16.21051,16.21051,0,1,1-.00038-.00145ZM606.85219,805.798a4.62472,4.62472,0,0,1-2.18144,7.7306l-26.1468,6.79548a4.62473,4.62473,0,0,1-5.67674-5.68829l7.26684-25.76646a4.709,4.709,0,0,1,7.84651-2.03929l18.89384,18.97049Zm-.54046,11.48383.00291-.00076a4.04382,4.04382,0,0,1,4.9299,2.89844l5.08666,19.57187.00114.00437a4.04382,4.04382,0,0,1-2.89844,4.9299L593.862,849.77231l-.00292.00075a4.0438,4.0438,0,0,1-4.92881-2.90027L583.844,827.30237h0a4.0438,4.0438,0,0,1,2.8966-4.931l19.57187-5.08667Z"/></svg>